<svg version="1.1" preserveAspectRatio="none" xmlns="http://www.w3.org/2000/svg" width="500" height="500" viewBox="0 0 500 500"><rect width="100%" height="100%" fill="#FFFFFF" fill-opacity="1"/><svg viewBox="721.9199 618.2827 517.8047 142.4" width="333" height="91.57738429179959" x="83.5px" y="204.2113px" xmlns="http://www.w3.org/2000/svg" xmlns:xlink="http://www.w3.org/1999/xlink" preserveAspectRatio="none"><defs></defs><style>.background {fill:#FFFFFF;fill-opacity:1;}.icon1 {fill:#0000FF;fill-opacity:1;}.icon1-str {stroke:#0000FF;stroke-opacity:1;}.icon2 {fill:#A9FF94;fill-opacity:1;}.icon3 {fill:#7AE061;fill-opacity:0.95;}.icon3-str {stroke:#7AE061;stroke-opacity:0.95;}.icon4 {fill:#64CC4B;fill-opacity:1;}.icon5 {fill:#9B9BFF;fill-opacity:1;}.icon6 {fill:#E6FFDF;fill-opacity:0.95;}.icon7 {fill:#C6C6FF;fill-opacity:1;}.icon8 {fill:#EFAFAA;fill-opacity:1;}</style><g opacity="1" transform="rotate(0 817.9197 618.2827)">
<svg width="421.8049" height="100" x="817.9197" y="618.2827" version="1.1" preserveAspectRatio="none" viewBox="0 0 421.8049 100">
  <defs><rect x="0" y="0" width="421.8049" height="100" rx="0px" ry="0px" id="id-B7crM0kCi1719793641653"></rect></defs><use class="icon1 icon3-str" style="stroke-width:0;" xlink:href="#id-B7crM0kCi1719793641653"></use>
</svg>
</g><g opacity="1" transform="rotate(0 896.1292 742.2827)">
<svg width="169.3861" height="18.4" x="896.1292" y="742.2827" version="1.1" preserveAspectRatio="none" viewBox="-0.04 -30.28 352.4 38.28">
  <g transform="matrix(1 0 0 1 0 0)" class="icon1"><path id="id-6izo4zJp15" d="M25.12 0L22.04-7L7.16-7L4.08 0L-0.04 0L12.64-28L16.60-28L29.32 0L25.12 0ZM8.56-10.20L20.64-10.20L14.60-23.92L8.56-10.20Z M34.92 0L34.92-29.68L38.76-29.68L38.76 0L34.92 0Z M76.72-21.20L80.16-21.20L72.24 0L68.56 0L62.44-16.08L56.24 0L52.56 0L44.68-21.20L48.32-21.20L54.48-4.32L60.88-21.20L64.12-21.20L70.40-4.24L76.72-21.20Z M93.08-21.40Q97.48-21.40 99.82-19.24Q102.16-17.08 102.16-12.80L102.16-12.80L102.16 0L98.52 0L98.52-2.80Q97.56-1.32 95.78-0.54Q94 0.24 91.56 0.24L91.56 0.24Q88 0.24 85.86-1.48Q83.72-3.20 83.72-6L83.72-6Q83.72-8.80 85.76-10.50Q87.80-12.20 92.24-12.20L92.24-12.20L98.32-12.20L98.32-12.96Q98.32-15.44 96.88-16.76Q95.44-18.08 92.64-18.08L92.64-18.08Q90.76-18.08 88.96-17.46Q87.16-16.84 85.92-15.80L85.92-15.80L84.32-18.68Q85.96-20 88.24-20.70Q90.52-21.40 93.08-21.40L93.08-21.40ZM92.20-2.72Q94.40-2.72 96-3.70Q97.60-4.68 98.32-6.48L98.32-6.48L98.32-9.44L92.40-9.44Q87.52-9.44 87.52-6.16L87.52-6.16Q87.52-4.56 88.76-3.64Q90-2.72 92.20-2.72L92.20-2.72Z M125.88-21.20L129.64-21.20L119.36 2.12Q118 5.36 116.18 6.68Q114.36 8 111.80 8L111.80 8Q110.24 8 108.78 7.50Q107.32 7 106.36 6.04L106.36 6.04L108 3.16Q109.64 4.72 111.80 4.72L111.80 4.72Q113.20 4.72 114.14 3.98Q115.08 3.24 115.84 1.44L115.84 1.44L116.52-0.04L107.16-21.20L111.16-21.20L118.56-4.24L125.88-21.20Z M141.04 0.24Q138.44 0.24 136.04-0.46Q133.64-1.16 132.28-2.24L132.28-2.24L133.88-5.28Q135.28-4.28 137.28-3.68Q139.28-3.08 141.32-3.08L141.32-3.08Q146.36-3.08 146.36-5.96L146.36-5.96Q146.36-6.92 145.68-7.48Q145-8.04 143.98-8.30Q142.96-8.56 141.08-8.88L141.08-8.88Q138.52-9.28 136.90-9.80Q135.28-10.32 134.12-11.56Q132.96-12.80 132.96-15.04L132.96-15.04Q132.96-17.92 135.36-19.66Q137.76-21.40 141.80-21.40L141.80-21.40Q143.92-21.40 146.04-20.88Q148.16-20.36 149.52-19.48L149.52-19.48L147.88-16.44Q145.28-18.12 141.76-18.12L141.76-18.12Q139.32-18.12 138.04-17.32Q136.76-16.52 136.76-15.20L136.76-15.20Q136.76-14.16 137.48-13.56Q138.20-12.96 139.26-12.68Q140.32-12.40 142.24-12.04L142.24-12.04Q144.80-11.60 146.38-11.10Q147.96-10.60 149.08-9.40Q150.20-8.20 150.20-6.04L150.20-6.04Q150.20-3.16 147.74-1.46Q145.28 0.24 141.04 0.24L141.04 0.24Z M198.40-21.20L201.84-21.20L193.92 0L190.24 0L184.12-16.08L177.92 0L174.24 0L166.36-21.20L170.00-21.20L176.16-4.32L182.56-21.20L185.80-21.20L192.08-4.24L198.40-21.20Z M207.72 0L207.72-21.20L211.56-21.20L211.56 0L207.72 0ZM209.64-25.28Q208.52-25.28 207.78-26Q207.04-26.72 207.04-27.76L207.04-27.76Q207.04-28.80 207.78-29.54Q208.52-30.28 209.64-30.28L209.64-30.28Q210.76-30.28 211.50-29.58Q212.24-28.88 212.24-27.84L212.24-27.84Q212.24-26.76 211.50-26.02Q210.76-25.28 209.64-25.28L209.64-25.28Z M231.60-4L232.80-1.24Q231.96-0.52 230.72-0.14Q229.48 0.24 228.16 0.24L228.16 0.24Q224.96 0.24 223.20-1.48Q221.44-3.20 221.44-6.40L221.44-6.40L221.44-18.04L217.84-18.04L217.84-21.20L221.44-21.20L221.44-25.84L225.28-25.84L225.28-21.20L231.36-21.20L231.36-18.04L225.28-18.04L225.28-6.56Q225.28-4.84 226.14-3.92Q227.00-3 228.60-3L228.60-3Q230.36-3 231.60-4L231.60-4Z M250.76-21.40Q254.80-21.40 257.18-19.06Q259.56-16.72 259.56-12.20L259.56-12.20L259.56 0L255.72 0L255.72-11.76Q255.72-14.84 254.24-16.40Q252.76-17.96 250.00-17.96L250.00-17.96Q246.88-17.96 245.08-16.14Q243.28-14.32 243.28-10.92L243.28-10.92L243.28 0L239.44 0L239.44-29.68L243.28-29.68L243.28-18.20Q244.48-19.72 246.42-20.56Q248.36-21.40 250.76-21.40L250.76-21.40Z M296.44-21.20L300.20-21.20L289.92 2.12Q288.56 5.36 286.74 6.68Q284.92 8 282.36 8L282.36 8Q280.80 8 279.34 7.50Q277.88 7 276.92 6.04L276.92 6.04L278.56 3.16Q280.20 4.72 282.36 4.72L282.36 4.72Q283.76 4.72 284.70 3.98Q285.64 3.24 286.40 1.44L286.40 1.44L287.08-0.04L277.72-21.20L281.72-21.20L289.12-4.24L296.44-21.20Z M314.28 0.24Q311.12 0.24 308.60-1.16Q306.08-2.56 304.66-5.02Q303.24-7.48 303.24-10.60L303.24-10.60Q303.24-13.72 304.66-16.18Q306.08-18.64 308.60-20.02Q311.12-21.40 314.28-21.40L314.28-21.40Q317.44-21.40 319.94-20.02Q322.44-18.64 323.86-16.18Q325.28-13.72 325.28-10.60L325.28-10.60Q325.28-7.48 323.86-5.02Q322.44-2.56 319.94-1.16Q317.44 0.24 314.28 0.24L314.28 0.24ZM314.28-3.12Q316.32-3.12 317.94-4.06Q319.56-5 320.48-6.70Q321.40-8.40 321.40-10.60L321.40-10.60Q321.40-12.80 320.48-14.50Q319.56-16.20 317.94-17.12Q316.32-18.04 314.28-18.04L314.28-18.04Q312.24-18.04 310.62-17.12Q309.00-16.20 308.06-14.50Q307.12-12.80 307.12-10.60L307.12-10.60Q307.12-8.40 308.06-6.70Q309.00-5 310.62-4.06Q312.24-3.12 314.28-3.12L314.28-3.12Z M348.52-21.20L352.36-21.20L352.36 0L348.72 0L348.72-3.20Q347.56-1.56 345.66-0.66Q343.76 0.24 341.52 0.24L341.52 0.24Q337.28 0.24 334.84-2.10Q332.40-4.44 332.40-9L332.40-9L332.40-21.20L336.24-21.20L336.24-9.44Q336.24-6.36 337.72-4.78Q339.20-3.20 341.96-3.20L341.96-3.20Q345.00-3.20 346.76-5.04Q348.52-6.88 348.52-10.24L348.52-10.24L348.52-21.20Z"/></g>
</svg>
</g><g opacity="1" transform="rotate(0 847.9197 648.2827)">
<svg width="361.8049" height="40" x="847.9197" y="648.2827" version="1.1" preserveAspectRatio="none" viewBox="3.32 -31.48 289.08000000000004 31.96">
  <g transform="matrix(1 0 0 1 0 0)" class="background"><path id="id-D6z1nYkh13" d="M23.88-14.56Q26.28-13.80 27.64-12.02Q29-10.24 29-7.64L29-7.64Q29-3.96 26.14-1.98Q23.28 0 17.80 0L17.80 0L3.32 0L3.32-28L17-28Q22.12-28 24.86-26.04Q27.60-24.08 27.60-20.72L27.60-20.72Q27.60-18.68 26.62-17.08Q25.64-15.48 23.88-14.56L23.88-14.56ZM16.20-23.12L9.76-23.12L9.76-16.52L16.20-16.52Q18.60-16.52 19.84-17.36Q21.08-18.20 21.08-19.84L21.08-19.84Q21.08-21.48 19.84-22.30Q18.60-23.12 16.20-23.12L16.20-23.12ZM17.32-4.88Q19.88-4.88 21.18-5.72Q22.48-6.56 22.48-8.32L22.48-8.32Q22.48-11.80 17.32-11.80L17.32-11.80L9.76-11.80L9.76-4.88L17.32-4.88Z M42.16-21.84Q47.16-21.84 49.84-19.46Q52.52-17.08 52.52-12.28L52.52-12.28L52.52 0L46.68 0L46.68-2.68Q44.92 0.32 40.12 0.32L40.12 0.32Q37.64 0.32 35.82-0.52Q34-1.36 33.04-2.84Q32.08-4.32 32.08-6.20L32.08-6.20Q32.08-9.20 34.34-10.92Q36.60-12.64 41.32-12.64L41.32-12.64L46.28-12.64Q46.28-14.68 45.04-15.78Q43.80-16.88 41.32-16.88L41.32-16.88Q39.60-16.88 37.94-16.34Q36.28-15.80 35.12-14.88L35.12-14.88L32.88-19.24Q34.64-20.48 37.10-21.16Q39.56-21.84 42.16-21.84L42.16-21.84ZM41.68-3.88Q43.28-3.88 44.52-4.62Q45.76-5.36 46.28-6.80L46.28-6.80L46.28-9L42-9Q38.16-9 38.16-6.48L38.16-6.48Q38.16-5.28 39.10-4.58Q40.04-3.88 41.68-3.88L41.68-3.88Z M71.24-21.84Q75.24-21.84 77.70-19.44Q80.16-17.04 80.16-12.32L80.16-12.32L80.16 0L73.92 0L73.92-11.36Q73.92-13.92 72.80-15.18Q71.68-16.44 69.56-16.44L69.56-16.44Q67.20-16.44 65.80-14.98Q64.40-13.52 64.40-10.64L64.40-10.64L64.40 0L58.16 0L58.16-21.52L64.12-21.52L64.12-19Q65.36-20.36 67.20-21.10Q69.04-21.84 71.24-21.84L71.24-21.84Z M101.84 0L95.04-8.44L92.04-5.48L92.04 0L85.80 0L85.80-29.68L92.04-29.68L92.04-12.88L101.16-21.52L108.60-21.52L99.64-12.40L109.40 0L101.84 0Z M137.52 0.48Q133.16 0.48 129.66-1.40Q126.16-3.28 124.18-6.58Q122.20-9.88 122.20-14L122.20-14Q122.20-18.12 124.18-21.42Q126.16-24.72 129.66-26.60Q133.16-28.48 137.52-28.48L137.52-28.48Q141.88-28.48 145.36-26.60Q148.84-24.72 150.84-21.42Q152.84-18.12 152.84-14L152.84-14Q152.84-9.88 150.84-6.58Q148.84-3.28 145.36-1.40Q141.88 0.48 137.52 0.48L137.52 0.48ZM137.52-5.04Q140-5.04 142-6.18Q144-7.32 145.14-9.36Q146.28-11.40 146.28-14L146.28-14Q146.28-16.60 145.14-18.64Q144-20.68 142-21.82Q140-22.96 137.52-22.96L137.52-22.96Q135.04-22.96 133.04-21.82Q131.04-20.68 129.90-18.64Q128.76-16.60 128.76-14L128.76-14Q128.76-11.40 129.90-9.36Q131.04-7.32 133.04-6.18Q135.04-5.04 137.52-5.04L137.52-5.04Z M164.12-21.96L164.12-21.04L169.64-21.04L169.64-16.24L164.28-16.24L164.28 0L158.04 0L158.04-16.24L154.72-16.24L154.72-21.04L158.04-21.04L158.04-22Q158.04-25.68 160.22-27.84Q162.40-30 166.36-30L166.36-30Q167.76-30 169.02-29.70Q170.28-29.40 171.12-28.84L171.12-28.84L169.48-24.32Q168.40-25.08 166.96-25.08L166.96-25.08Q164.12-25.08 164.12-21.96L164.12-21.96Z M205.08-14.56Q207.48-13.80 208.84-12.02Q210.20-10.24 210.20-7.64L210.20-7.64Q210.20-3.96 207.34-1.98Q204.48 0 199 0L199 0L184.52 0L184.52-28L198.20-28Q203.32-28 206.06-26.04Q208.80-24.08 208.80-20.72L208.80-20.72Q208.80-18.68 207.82-17.08Q206.84-15.48 205.08-14.56L205.08-14.56ZM197.40-23.12L190.96-23.12L190.96-16.52L197.40-16.52Q199.80-16.52 201.04-17.36Q202.28-18.20 202.28-19.84L202.28-19.84Q202.28-21.48 201.04-22.30Q199.80-23.12 197.40-23.12L197.40-23.12ZM198.52-4.88Q201.08-4.88 202.38-5.72Q203.68-6.56 203.68-8.32L203.68-8.32Q203.68-11.80 198.52-11.80L198.52-11.80L190.96-11.80L190.96-4.88L198.52-4.88Z M214.68 0L214.68-21.52L220.92-21.52L220.92 0L214.68 0ZM217.80-24.52Q216.08-24.52 215.00-25.52Q213.92-26.52 213.92-28L213.92-28Q213.92-29.48 215.00-30.48Q216.08-31.48 217.80-31.48L217.80-31.48Q219.52-31.48 220.60-30.52Q221.68-29.56 221.68-28.12L221.68-28.12Q221.68-26.56 220.60-25.54Q219.52-24.52 217.80-24.52L217.80-24.52Z M239.80-21.84Q243.80-21.84 246.26-19.44Q248.72-17.04 248.72-12.32L248.72-12.32L248.72 0L242.48 0L242.48-11.36Q242.48-13.92 241.36-15.18Q240.24-16.44 238.12-16.44L238.12-16.44Q235.76-16.44 234.36-14.98Q232.96-13.52 232.96-10.64L232.96-10.64L232.96 0L226.72 0L226.72-29.68L232.96-29.68L232.96-19.28Q234.20-20.52 235.96-21.18Q237.72-21.84 239.80-21.84L239.80-21.84Z M263.04-21.84Q268.04-21.84 270.72-19.46Q273.40-17.08 273.40-12.28L273.40-12.28L273.40 0L267.56 0L267.56-2.68Q265.80 0.32 261.00 0.32L261.00 0.32Q258.52 0.32 256.70-0.52Q254.88-1.36 253.92-2.84Q252.96-4.32 252.96-6.20L252.96-6.20Q252.96-9.20 255.22-10.92Q257.48-12.64 262.20-12.64L262.20-12.64L267.16-12.64Q267.16-14.68 265.92-15.78Q264.68-16.88 262.20-16.88L262.20-16.88Q260.48-16.88 258.82-16.34Q257.16-15.80 256.00-14.88L256.00-14.88L253.76-19.24Q255.52-20.48 257.98-21.16Q260.44-21.84 263.04-21.84L263.04-21.84ZM262.56-3.88Q264.16-3.88 265.40-4.62Q266.64-5.36 267.16-6.80L267.16-6.80L267.16-9L262.88-9Q259.04-9 259.04-6.48L259.04-6.48Q259.04-5.28 259.98-4.58Q260.92-3.88 262.56-3.88L262.56-3.88Z M285.00-18.68Q286.12-20.24 288.02-21.04Q289.92-21.84 292.40-21.84L292.40-21.84L292.40-16.08Q291.36-16.16 291.00-16.16L291.00-16.16Q288.32-16.16 286.80-14.66Q285.28-13.16 285.28-10.16L285.28-10.16L285.28 0L279.04 0L279.04-21.52L285.00-21.52L285.00-18.68Z"/></g>
</svg>
</g><g opacity="1" transform="rotate(0 721.9199 618.2827)">
<svg width="99.9998" height="100" x="721.9199" y="618.2827" version="1.1" preserveAspectRatio="none" viewBox="0 0 99.9998 100">
  <defs><rect x="1.9999959999999999" y="1.9999959999999999" width="95.99980799999999" height="96.000008" rx="0px" ry="0px" id="id-tBXipXk0b1719793641653"></rect></defs><use class="background icon1-str" style="stroke-width:3.9999919999999998;" xlink:href="#id-tBXipXk0b1719793641653"></use>
</svg>
</g><g opacity="1" transform="rotate(0 741.9199 647.1406)">
<svg width="59.9998" height="42.2843" x="741.9199" y="647.1406" version="1.1" preserveAspectRatio="none" viewBox="19.889087677001953 43.65806198120117 160.043701171875 112.78924560546875">
  <g transform="matrix(1 0 0 1 0 0)"><g><path d="M179.2 106.7c-.5-.3-1.4-.1-1.9-.1-1 0-2-.1-3-.1-1.9-.2-3.8-.5-5.6-1-3-.8-6-2.1-8.5-4-1.9-1.5-3.4-3.5-5-5.2-1.4-1.5-2.8-3.5-1.8-5.6 5.4-11.6 21.8-20.9 14.8-34.8-2.3 6.2-7 10.1-13.2 11.6-9.3 2.3-16.3-3.9-22.6-9.5-1.6-1.3-3.2-2.6-4.9-3.9-4.9-3.7-10.1-6.9-16.6-7.8-2.7-.8-5.5-1.4-8.4-1.8-14.1-2.1-29-.2-41.7 4.9-1.8.9-3.5 1.9-5.1 3.1-4.5 3.2-8.3 7.3-11.8 11.7-1.2 1.4-2.3 2.9-3.5 4.4-2.2-1.9-4.2-4.1-5.9-6.5 1.2-.3 2.4-.8 3.4-1.5 3.5-1.6 5.9-5.6 5.1-9.4-1-5.2-7.1-8.2-11.6-6.1-.9.4-1.8 1-2.3 1.9-.5.9-.6 2.1-.6 3.1 0 2.7.3 5.4.8 8-.3 0-.7-.1-1-.2-1.9-.5-3.3-2-4.4-3.6-.4-.7-.8-1.4-1.4-1.9s-1.6-.6-2.2 0c-.3.3-.4.8-.4 1.2-.1 1.7.5 3.4 1.3 4.9.6 1.1 1.3 2.1 2.3 2.8 1.9 1.4 4.5 1.5 6.9 1.1.9 2.7 2 5.3 3.4 7.7 5 7.7 7.2 16.8 8.3 25.8 1.2 9.5 1.2 19.1 1.5 28.6.1 3.4.3 6.9.6 10.3.3 3 .9 6 1 9.1.1 2.8.2 5.6 1.5 8.2 1.4 2.8 4.8 5 7.8 3.9 1-4.9 1.9-9.9 3.2-14.8.6-2.1 1.2-4.3 1.7-6.5.4-1.7 1-3.4 1.9-4.9 1.7-2.7 4.7-3.1 7.4-1.6 1.9 1.1 4 1.4 6.1 1.9 9.8 2.1 19.9 3.3 29.9 3.5.6 0 1.2 0 1.7.4.4.3.6.9.8 1.4l4.2 12.3c.8 2.3 1.6 4.7 3.3 6.4s4.6 2.5 6.6 1.1c-1.4-9.1-.9-18.4 1.5-27.2 2.1.4 4.2.5 6.4.6 2.1 0 4.3-.1 6.5-.3 2.8-.3 5.6-.8 8.4-1 3.2-.2 6.4-.4 9.7-.7 6.1-.6 12.7-1.4 18-4.7 2.3-1.4 4.3-3.3 5.7-5.6 1.4-2.4 3.4-6.7 1.9-9.4 0-.1-.1-.2-.2-.2zM31.2 54c-.1-2.2.9-4.5 2.9-5.5s4.8 0 5.3 2.1c.5 2-.7 3.9-2.3 5.1-.4.3-4.8 2.4-5 2.1-.4-1.2-.8-2.5-.9-3.8z" data-color="1" class="icon1"></path><path d="M149.6 92.2c0 1.9-1.5 3.4-3.5 3.4s-3.5-1.5-3.5-3.4 1.5-3.4 3.5-3.4 3.5 1.5 3.5 3.4z" data-color="2" class="icon2"></path><path d="M133.8 136.7c0-1 .4-3 0-3.9-.5-1.2-.4-.8-1.9-1-2.6-.3-5.1-.1-7.6-.6l2.3 16.5c.2 1.2.3 2.5 1 3.5.8 1.1 2.1 1.8 3.4 2 1.3.2 2.7.1 4.1 0 .6-.1 1.3-.2 1.5-.8.1-.3 0-.5-.1-.8-1.6-4.9-2.5-9.9-2.7-14.9z" data-color="3" class="icon3"></path><path d="M66.4 130.4c-1.9.7-1.7 3.4-1.9 5-.8 6.7-1.4 12.8 1 19.3.1.3.2.6.5.8.3.3.7.4 1.2.4l2.2.4c1 .2 2.1.3 2.8-.4.8-.8.6-2.1.4-3.2-1.2-6.7-.4-13.6 2.3-19.8.1-.1-7.4-2.9-8.5-2.5z" data-color="3" class="icon3"></path><path d="M146.1 91.5c-1.1 0-2 .8-2 1.9 0 1.1.8 2 1.9 2h.1c1.1 0 1.9-.9 1.9-2s-.8-1.9-1.9-1.9z" data-color="3" class="icon3"></path></g></g>
</svg>
</g></svg></svg>